# xmcd
# 
# Track frame offsets:
#     150
#     8458
#     20647
#     46662
#     57618
#     69136
#     78062
#     93186
#     109085
#     114025
#     132341
#     143897
#     163435
#     180363
#     196974
#     210248
#     218461
#     231416
#     243933
#     253722
# 
# Disc length: 3571
# 
# Revision: 0
# Processed by: cddbd v1.5.2PL0 Copyright (c) Steve Scherf et al.
# Submitted via: fre:ac v1.0.31
# 
DISCID=fc0df114
DTITLE=Graeme Knights - Along The Way
DYEAR=2012
DGENRE=Folk
TTITLE0=Unison in Harmony
TTITLE1=Hilo Johnny Hilo
TTITLE2=Deportees
TTITLE3=The Hounds Are Out
TTITLE4=Blackleg Mining Man
TTITLE5=Sally Racket
TTITLE6=Here is My Home
TTITLE7=The Bridegroom
TTITLE8=Leaky Ship
TTITLE9=Leaving Nancy
TTITLE10=Lindy Lowe
TTITLE11=Oh It's Hard
TTITLE12=River Days
TTITLE13=Time Has Made a Change In Me
TTITLE14=Bright Morning Star
TTITLE15=Haul Away The Bowline
TTITLE16=Kind Friends and Companions
TTITLE17=Jim The Carter's Lad
TTITLE18=The Parting Glass
TTITLE19=Saucy Anna
EXTD=
EXTT0=
EXTT1=
EXTT2=
EXTT3=
EXTT4=
EXTT5=
EXTT6=
EXTT7=
EXTT8=
EXTT9=
EXTT10=
EXTT11=
EXTT12=
EXTT13=
EXTT14=
EXTT15=
EXTT16=
EXTT17=
EXTT18=
EXTT19=
PLAYORDER=
